<?xml version="1.0" standalone="no"?>
<!DOCTYPE svg PUBLIC "-//W3C//DTD SVG 20010904//EN"
 "http://www.w3.org/TR/2001/REC-SVG-20010904/DTD/svg10.dtd">
<svg version="1.0" xmlns="http://www.w3.org/2000/svg"
 width="600.000000pt" height="600.000000pt" viewBox="0 0 600.000000 600.000000"
 preserveAspectRatio="xMidYMid meet">
<metadata>
Created by potrace 1.11, written by Peter Selinger 2001-2013
</metadata>
<g transform="translate(0.000000,600.000000) scale(0.100000,-0.100000)"
fill="#000000" stroke="none">
<path d="M2113 5023 c-37 -67 -67 -181 -79 -298 -3 -27 -7 -59 -9 -70 -14 -86
-18 -94 -56 -121 -44 -30 -41 -12 -40 -237 0 -150 -5 -174 -75 -323 -37 -80
-41 -108 -49 -314 -3 -80 -7 -161 -10 -180 -2 -19 -6 -73 -9 -119 -4 -66 -10
-91 -26 -110 -151 -188 -253 -406 -294 -630 -20 -104 -16 -313 8 -424 45 -206
124 -427 227 -627 121 -236 263 -433 359 -495 38 -26 53 -29 115 -29 45 1 101
10 159 27 48 15 110 27 137 27 49 0 49 0 49 -34 0 -132 -197 -280 -444 -333
-179 -38 -447 13 -741 142 -187 82 -356 128 -625 171 -237 37 -274 34 -304
-24 -30 -59 1 -101 102 -137 42 -15 156 -69 252 -121 321 -170 444 -221 719
-295 417 -112 903 -81 1145 73 127 81 235 217 299 375 15 38 25 46 102 83 175
86 260 224 396 645 30 95 31 235 4 518 -3 26 -7 71 -10 100 -9 94 -47 241 -77
302 -37 74 -78 130 -191 263 -107 127 -123 157 -143 270 -10 52 -38 119 -65
154 -59 74 -75 139 -94 378 -11 134 -16 174 -36 260 l-20 85 28 19 c56 40 93
87 108 140 23 79 25 94 26 181 2 89 -5 106 -85 215 -25 34 -46 73 -46 85 0 27
22 125 44 197 25 79 35 172 22 186 -15 14 -92 -35 -173 -110 -52 -49 -97 -89
-101 -89 -4 -1 -67 -2 -140 -3 l-134 -2 -22 30 c-13 17 -40 62 -60 99 -41 75
-91 137 -110 137 -7 0 -22 -17 -33 -37z"/>
<path d="M4361 3676 c-42 -19 -44 -45 -44 -546 -1 -354 3 -485 12 -507 29 -70
187 -71 235 -1 9 12 16 17 16 10 0 -24 91 -55 161 -56 51 0 77 6 121 27 86 42
182 155 205 241 14 50 11 178 -4 224 -67 198 -270 313 -430 242 -26 -11 -50
-22 -53 -23 -3 -1 -5 73 -5 165 -1 186 -7 211 -61 228 -36 12 -122 10 -153 -4z
m424 -636 c32 -30 46 -89 30 -126 -43 -100 -176 -111 -220 -18 -22 46 -19 84
10 126 41 60 127 68 180 18z"/>
<path d="M3590 3342 c-46 -7 -128 -101 -124 -142 1 -8 2 -20 3 -25 1 -13 40
-56 133 -151 l69 -71 -91 -94 c-100 -102 -125 -144 -111 -182 12 -30 89 -107
110 -109 9 0 23 -2 31 -3 27 -3 54 17 150 111 l96 94 89 -91 c108 -109 133
-124 179 -109 37 12 101 73 114 110 14 38 -14 82 -112 180 -47 46 -86 88 -86
92 0 4 43 51 95 104 97 98 112 124 101 169 -9 35 -65 96 -104 112 -47 20 -81
0 -187 -107 -48 -50 -89 -90 -91 -90 -2 0 -48 44 -103 99 -100 99 -116 110
-161 103z"/>
</g>
</svg>
